<svg id="Layer_1" height="512" viewBox="0 0 512 512" width="512" xmlns="http://www.w3.org/2000/svg" data-name="Layer 1"><g fill-rule="evenodd"><path d="m259.012 483.769 19.116 10.871c24.674 14.246 39.588-16.046 20.312-27.27l10.733 6.197c8.573 4.95 19.636 1.985 24.586-6.588 4.932-8.542 1.986-19.594-6.532-24.553l5.742 3.315c9.128 5.27 20.909 2.113 26.179-7.015 5.247-9.09 2.118-20.85-6.939-26.135l.018.01 5.704 3.294c9.128 5.27 20.909 2.113 26.179-7.015 2.621-4.539 3.136-9.802 1.884-14.534-1.491-3.862-2.801-7.257-8.899-11.645l-57.586-33.247c-30.474-24.451-46.962-38.512-69.726-61.632-39.552-28.427-68.018 6.935-120.343-22.493l-37.22-20.934c-33.214 27.061-52.06 60.931-40.38 116.162l66.47 34.265 17.136 18.44 123.567 70.505z" fill="#dea368"/><path d="m380.862 413.045c1.244-1.203 2.342-2.596 3.248-4.164 2.62-4.539 3.136-9.802 1.884-14.534-1.491-3.862-2.801-7.257-8.899-11.645l-57.586-33.247c-30.474-24.451-46.962-38.512-69.726-61.632-4.939-3.55-9.705-6.104-14.366-7.915l-50.312 31.369c-18.022 11.236-17.578 34.385-1.936 47.338 9.105 7.54 19.681 11.907 31.613 11.443 23.836-.927 42.631-20.716 64.25-20.844 12.335-.073 23.014 6.691 33.319 12.641l56.924 32.865c4.871 3.112 14.561 8.642 11.587 18.326z" fill="#d19458"/><path d="m306.703 485.988c1.7-6.536-.525-14.112-8.262-18.617l10.733 6.197.019.011-17.112-9.88c-2.858-1.65-6.541-.663-8.191 2.195-1.647 2.854-.659 6.543 2.195 8.191l20.619 11.904z" fill="#d19458"/><path d="m335.86 461.257c1.32-7.255-1.931-14.929-8.633-18.831l5.742 3.315h.003s-26.137-15.088-26.137-15.088c-2.858-1.65-6.541-.663-8.19 2.195-1.648 2.854-.659 6.543 2.195 8.191l35.021 20.219z" fill="#d19458"/><path d="m361.516 431.813c1.024-7.467-2.429-15.201-9.294-19.213l-24.825-14.333c-2.858-1.65-6.541-.663-8.191 2.195-1.648 2.854-.659 6.543 2.195 8.191z" fill="#d19458"/><path d="m132.232 418.828c-5.211 9.026-2.09 20.675 6.936 25.886 9.014 5.204 20.682 2.077 25.886-6.936l13.619-23.589c5.211-9.026 2.09-20.674-6.936-25.886-9.014-5.204-20.682-2.078-25.886 6.936l-13.619 23.588z" fill="#fdd7ad"/><path d="m142.691 446.291c8.334 2.743 17.816-.637 22.363-8.512l13.62-23.59c4.554-7.888 2.744-17.778-3.809-23.625z" fill="#f2c496"/><path d="m230.699 475.678c-5.211 9.026-2.09 20.674 6.937 25.886 9.014 5.204 20.682 2.078 25.886-6.936l13.619-23.589c5.211-9.026 2.09-20.674-6.936-25.885-9.014-5.204-20.682-2.078-25.886 6.936l-13.619 23.589z" fill="#fdd7ad"/><path d="m241.157 503.141c8.334 2.744 17.817-.637 22.364-8.513l13.619-23.589c4.554-7.888 2.744-17.779-3.809-23.625z" fill="#f2c496"/><path d="m193.279 464.692c-5.211 9.026-2.09 20.675 6.936 25.886 9.014 5.204 20.682 2.078 25.886-6.936l18.217-31.553c5.211-9.026 2.09-20.674-6.936-25.886-9.014-5.204-20.682-2.078-25.886 6.936l-18.217 31.552z" fill="#fdd7ad"/><path d="m203.737 492.155c8.334 2.744 17.816-.637 22.363-8.513l18.217-31.553c4.554-7.888 2.744-17.778-3.809-23.625l-36.772 63.691z" fill="#f2c496"/><path d="m156.596 452.429c-5.211 9.026-2.09 20.675 6.937 25.886 9.014 5.204 20.682 2.077 25.886-6.936l22.077-38.24c5.211-9.026 2.09-20.674-6.936-25.886-9.014-5.204-20.683-2.078-25.886 6.936l-22.077 38.24z" fill="#fdd7ad"/><path d="m167.054 479.892c8.319 2.739 17.781-.624 22.339-8.469l22.103-38.284c4.554-7.888 2.744-17.778-3.809-23.625l-40.633 70.379z" fill="#f2c496"/><path d="m459.022 360.559-73.028 33.788c-1.491-3.861-2.801-7.257-8.899-11.644l-57.586-33.247c-12.583-7.265-24.717-14.653-40.562-14.559-34.466.204-57.619 36.728-86.646 12.692-7.308-6.053-10.046-17.662.379-24.162l61.576-38.392c20.541-12.807 42.653-18.912 65.099-11.514 19.249 6.344 38.272 4.812 55.984-5.039l43.303-24.084c37.323 25.794 53.656 72.78 40.38 116.163z" fill="#fdd7ad"/><path d="m471.15 366.179-18.296 7.77c-2.311.981-4.749.764-6.849-.611-2.101-1.375-3.275-3.522-3.301-6.033-.44-43.453-18.223-79.081-49.77-105.641-1.893-1.594-2.803-3.82-2.565-6.283s1.554-4.474 3.717-5.677l23.334-12.978c3.943-2.193 8.558-1.823 12.1.971 36.903 29.107 56.395 79.892 48.076 120.598-.744 3.638-3.028 6.432-6.447 7.884z" fill="#2a92fa"/><path d="m471.15 366.179-12.604 5.353c-.074-.045-.147-.092-.221-.139-2.227-1.458-3.472-3.734-3.5-6.396-.466-46.071-19.321-83.846-52.769-112.006-1.885-1.587-2.85-3.766-2.752-6.189l18.115-10.075c3.943-2.193 8.558-1.823 12.1.971 36.903 29.107 56.395 79.892 48.077 120.598-.744 3.638-3.028 6.432-6.447 7.883z" fill="#5caeff"/><path d="m40.85 366.179 18.297 7.77c2.31.981 4.749.764 6.849-.611 2.101-1.375 3.275-3.522 3.301-6.033.44-43.453 18.223-79.081 49.77-105.641 1.893-1.594 2.803-3.82 2.565-6.283s-1.555-4.474-3.717-5.677l-23.335-12.978c-3.943-2.193-8.557-1.823-12.1.971-36.903 29.107-56.395 79.892-48.077 120.598.744 3.638 3.028 6.432 6.447 7.884z" fill="#5d689e"/><path d="m40.85 366.179 12.604 5.353c.074-.045.147-.092.221-.139 2.227-1.458 3.472-3.734 3.5-6.396.467-46.071 19.321-83.846 52.769-112.006 1.885-1.587 2.85-3.766 2.752-6.189l-18.115-10.075c-3.943-2.193-8.558-1.823-12.1.971-36.903 29.107-56.395 79.892-48.077 120.598.744 3.638 3.028 6.432 6.447 7.883z" fill="#7986bf"/><path d="m115.374 146.35 64.894-64.894c1.5-1.5 3.718-1.847 5.55-1.041l68.983 22.89 66.716-66.716c1.622-1.622 4.083-1.896 5.988-.822l64.959 33.092 48.819-48.819-8.086 1.184c-2.729.399-5.265-1.49-5.664-4.219s1.49-5.265 4.219-5.664l23.004-3.368c3.37-.493 6.199 2.452 5.65 5.759l-3.354 22.91c-.399 2.729-2.935 4.618-5.664 4.219s-4.618-2.935-4.219-5.664l1.184-8.086-51.385 51.385-.002-.002c-1.488 1.489-3.821 1.926-5.799.92l-65.147-33.187-66.315 66.315-.015-.015c-1.288 1.286-3.237 1.816-5.083 1.206l-69.436-23.04-62.729 62.729-7.07-7.07z" fill="#7986bf"/><path d="m115.725 138.001c6.564-1.759 13.31 2.136 15.069 8.7 1.759 6.563-2.136 13.31-8.7 15.068-6.564 1.759-13.31-2.136-15.069-8.7s2.137-13.31 8.7-15.068z" fill="#fb545c"/><path d="m252.988 97.12c6.564-1.759 13.31 2.136 15.069 8.7 1.759 6.563-2.137 13.309-8.7 15.068-6.564 1.759-13.31-2.136-15.068-8.7-1.759-6.564 2.136-13.31 8.7-15.068z" fill="#5caeff"/><path d="m321.868 28.239c6.563-1.759 13.31 2.136 15.068 8.7 1.759 6.563-2.136 13.31-8.7 15.068-6.564 1.759-13.31-2.136-15.068-8.7-1.759-6.563 2.136-13.31 8.7-15.068z" fill="#2dd62d"/><path d="m390.25 63.075c6.564-1.759 13.31 2.136 15.068 8.699 1.759 6.564-2.136 13.31-8.7 15.069-6.563 1.759-13.31-2.136-15.068-8.7-1.759-6.564 2.136-13.31 8.7-15.068z" fill="#f89b00"/><path d="m180.619 73.107c6.564-1.759 13.31 2.136 15.068 8.7 1.759 6.563-2.136 13.31-8.7 15.068-6.564 1.759-13.31-2.136-15.069-8.7-1.759-6.563 2.136-13.31 8.7-15.068z" fill="#fdc72e"/></g><path d="m167.947 121.242h39.188v95.691h-39.188z" fill="#fdc72e"/><path d="m99.316 180.023h39.188v36.909h-39.188z" fill="#fb545c"/><path d="m236.578 141.291h39.188v75.641h-39.188z" fill="#5caeff"/><path d="m305.21 79.546h39.188v137.387h-39.188z" fill="#2dd62d"/><path d="m373.841 108.483h39.188v108.449h-39.188z" fill="#f89b00"/><path d="m99.316 180.023h9.656v36.909h-9.656z" fill="#f0414a"/><path d="m167.947 121.241h9.656v95.691h-9.656z" fill="#f9ac00"/><path d="m236.578 141.291h9.656v75.641h-9.656z" fill="#2a92fa"/><path d="m305.21 79.545h9.656v137.386h-9.656z" fill="#29b933"/><path d="m373.841 108.483h9.656v108.449h-9.656z" fill="#ee8700"/></svg>