<svg id="Capa_1" enable-background="new 0 0 512.006 512.006" height="512" viewBox="0 0 512.006 512.006" width="512" xmlns="http://www.w3.org/2000/svg"><path d="m499.834 307.445-27.105-19.378-.365-76.364c-.033-6.975-5.072-11.814-12.302-11.814h-83.948l-51.55 192.387h144.29c8.854 0 17.956-7.178 20.328-16.032l14.751-55.052c1.51-5.631-.046-10.849-4.099-13.747z" fill="#ffa95f"/><path d="m376.957 368.229c-1.153 0-2.708-.237-3.573-1.364-.776-1.012-.93-2.68-.421-4.578l9.147-34.139h-40.363l-17.183 64.129h144.29c8.855 0 17.955-7.178 20.328-16.032l2.148-8.016z" fill="#ff8b5a"/><path d="m499.834 307.445-27.105-19.378-.365-76.364c-.033-6.975-5.072-11.814-12.302-11.814h-43.585l-34.367 128.258h119.96l1.864-6.955c1.509-5.631-.047-10.849-4.1-13.747z" fill="#ffc269"/><path d="m163.975 183.858h224.452c4.427 0 7.054 3.589 5.868 8.016l-53.698 200.403h-232.468c-4.427 0-7.054-3.589-5.868-8.016l51.55-192.387c1.186-4.427 5.737-8.016 10.164-8.016z" fill="#e5646e"/><path d="m340.597 392.277 6.444-24.048h-2.148-203.765c-5.165 0-8.925-4.899-7.588-9.889l6.291-23.484c1.189-4.438 5.877-6.766 10.243-5.335 16.223 5.317 33.363 7.481 50.748 6.351 62.92-4.088 113.173-53.215 125.162-115.117 2.496-12.887 2.788-22.684 1.09-36.898h-163.1c-4.427 0-8.978 3.589-10.164 8.016l-51.55 192.387c-1.186 4.427 1.44 8.016 5.868 8.016h232.469z" fill="#db4655"/><ellipse cx="428.774" cy="392.277" fill="#5d5360" rx="36.647" ry="28.055" transform="matrix(.753 -.659 .659 .753 -152.227 379.395)"/><ellipse cx="180.274" cy="392.277" fill="#5d5360" rx="36.647" ry="28.055" transform="matrix(.753 -.659 .659 .753 -213.708 215.761)"/><path d="m416.617 288.067h56.113l-.268-56.113h-40.809c-8.854 0-17.955 7.178-20.328 16.032l-6.444 24.048c-2.373 8.855 2.881 16.033 11.736 16.033z" fill="#dbeaff"/><circle cx="191.871" cy="199.89" fill="#eceaec" r="112.226"/><circle cx="191.871" cy="199.89" fill="#fff" r="88.177"/><circle cx="191.871" cy="199.89" fill="#5d5360" r="16.032"/><path d="m472.729 288.067-.114-24.048h-35.67c-1.152 0-2.707-.237-3.571-1.364-.777-1.012-.931-2.68-.422-4.578l6.444-24.049.556-2.074h-8.299c-8.855 0-17.956 7.178-20.328 16.032l-6.445 24.048c-2.372 8.854 2.883 16.032 11.737 16.032h56.112z" fill="#c3ddff"/><path d="m428.774 384.777c-4.142 0-7.5 3.358-7.5 7.5s3.358 7.5 7.5 7.5h.08c4.142 0 7.46-3.358 7.46-7.5s-3.397-7.5-7.54-7.5z"/><path d="m180.274 384.777c-4.142 0-7.5 3.358-7.5 7.5s3.358 7.5 7.5 7.5h.08c4.142 0 7.46-3.358 7.46-7.5s-3.397-7.5-7.54-7.5z"/><path d="m504.196 301.345-23.985-17.148-.346-72.529c-.054-11.17-8.382-19.278-19.802-19.278h-58.221c.682-3.954-.193-7.842-2.499-10.848-2.528-3.294-6.507-5.184-10.916-5.184h-52.266c-4.142 0-7.5 3.358-7.5 7.5s3.358 7.5 7.5 7.5l50.507.001-51.827 193.418h-113.901c.154-7.512-1.98-14.552-6.261-20.131-5.905-7.695-15.072-11.934-25.813-11.934-19.304 0-38.466 13.695-46.014 32.065l-32.965-.001 14.654-54.689c1.072-4.001-1.302-8.113-5.304-9.186-3.994-1.068-8.113 1.302-9.186 5.304l-15.035 56.115c-1.188 4.432-.387 8.906 2.197 12.273 2.528 3.294 6.507 5.184 10.916 5.184h31.48c-.154 7.512 1.979 14.551 6.26 20.13 5.905 7.696 15.072 11.934 25.813 11.934 19.304 0 38.466-13.695 46.014-32.064h170.413c-.154 7.512 1.979 14.551 6.26 20.13 5.905 7.696 15.072 11.934 25.813 11.934 19.304 0 38.466-13.695 46.014-32.064h2.659c12.217 0 24.329-9.484 27.573-21.592l14.751-55.051c2.329-8.696-.346-17.045-6.983-21.789zm-299.102 88.991c-3.85 14.367-19.15 26.505-33.412 26.505-5.97 0-10.911-2.154-13.913-6.065-3.228-4.206-4.05-10.086-2.315-16.558 3.849-14.368 19.15-26.506 33.412-26.506 5.97 0 10.911 2.154 13.913 6.065 3.227 4.207 4.05 10.087 2.315 16.559zm260.099-109.769h-48.577c-1.268 0-2.988-.271-3.981-1.565-.875-1.14-1.061-2.972-.51-5.026l6.443-24.048c1.495-5.579 7.609-10.473 13.083-10.473h33.345zm-11.599 109.769c-3.85 14.367-19.15 26.505-33.412 26.505-5.97 0-10.911-2.154-13.913-6.065-3.228-4.206-4.05-10.086-2.315-16.558 3.849-14.368 19.15-26.506 33.412-26.506 5.97 0 10.911 2.154 13.913 6.065 3.227 4.207 4.05 10.087 2.315 16.559zm28.344-16.032c-1.442 5.381-7.18 10.112-12.498 10.442.147-7.5-1.987-14.528-6.262-20.099-5.905-7.695-15.072-11.934-25.813-11.934-19.304 0-38.466 13.695-46.014 32.065h-40.981l13.164-49.129h90.438c4.142 0 7.5-3.358 7.5-7.5s-3.358-7.5-7.5-7.5h-86.419l30.347-113.258h62.161c2.181 0 4.785.755 4.802 4.35l.061 12.715h-33.274c-12.217 0-24.329 9.484-27.573 21.591l-6.443 24.048c-1.767 6.594-.637 13.169 3.1 18.039 3.625 4.725 9.414 7.434 15.881 7.434h53.708l25.148 17.98c2.138 1.528 1.472 4.753 1.217 5.705l-.374 1.396h-10.277c-4.142 0-7.5 3.358-7.5 7.5s3.358 7.5 7.5 7.5h6.258z"/><path d="m191.871 319.616c66.017 0 119.726-53.708 119.726-119.726s-53.709-119.726-119.726-119.726-119.726 53.709-119.726 119.726 53.709 119.726 119.726 119.726zm0-224.452c57.746 0 104.726 46.98 104.726 104.726s-46.979 104.726-104.726 104.726-104.726-46.98-104.726-104.726 46.98-104.726 104.726-104.726z"/><path d="m159.807 239.454c1.919 0 3.839-.732 5.303-2.197l16.298-16.298c3.154 1.573 6.706 2.463 10.463 2.463 12.976 0 23.532-10.557 23.532-23.532 0-3.757-.89-7.309-2.463-10.463l40.347-40.346c2.929-2.929 2.929-7.678 0-10.606-2.929-2.93-7.678-2.929-10.606 0l-40.347 40.346c-3.154-1.573-6.706-2.462-10.463-2.462-12.976 0-23.532 10.557-23.532 23.532 0 3.757.89 7.309 2.462 10.463l-16.298 16.298c-2.929 2.929-2.929 7.678 0 10.606 1.465 1.464 3.384 2.196 5.304 2.196zm32.064-48.096c4.705 0 8.532 3.828 8.532 8.532s-3.828 8.532-8.532 8.532-8.532-3.828-8.532-8.532 3.828-8.532 8.532-8.532z"/><path d="m191.871 135.244c4.142 0 7.5-3.358 7.5-7.5v-8.016c0-4.142-3.358-7.5-7.5-7.5s-7.5 3.358-7.5 7.5v8.016c0 4.143 3.358 7.5 7.5 7.5z"/><path d="m191.871 264.535c-4.142 0-7.5 3.358-7.5 7.5v8.016c0 4.142 3.358 7.5 7.5 7.5s7.5-3.358 7.5-7.5v-8.016c0-4.142-3.358-7.5-7.5-7.5z"/><path d="m264.016 207.39h8.016c4.142 0 7.5-3.358 7.5-7.5s-3.358-7.5-7.5-7.5h-8.016c-4.142 0-7.5 3.358-7.5 7.5s3.358 7.5 7.5 7.5z"/><path d="m127.226 199.89c0-4.142-3.358-7.5-7.5-7.5h-8.016c-4.142 0-7.5 3.358-7.5 7.5s3.358 7.5 7.5 7.5h8.016c4.142 0 7.5-3.358 7.5-7.5z"/><path d="m87.661 296.599h-80.161c-4.142 0-7.5 3.358-7.5 7.5s3.358 7.5 7.5 7.5h80.161c4.142 0 7.5-3.358 7.5-7.5s-3.358-7.5-7.5-7.5z"/><path d="m79.645 328.664h-48.097c-4.142 0-7.5 3.358-7.5 7.5s3.358 7.5 7.5 7.5h48.097c4.142 0 7.5-3.358 7.5-7.5s-3.358-7.5-7.5-7.5z"/><path d="m71.629 360.728h-16.032c-4.142 0-7.5 3.358-7.5 7.5s3.358 7.5 7.5 7.5h16.032c4.142 0 7.5-3.358 7.5-7.5s-3.358-7.5-7.5-7.5z"/></svg>