<?xml version="1.0" encoding="UTF-8"?>
<svg xmlns="http://www.w3.org/2000/svg" xmlns:xlink="http://www.w3.org/1999/xlink" version="1.1" width="512" height="512" x="0" y="0" viewBox="0 0 64 64" style="enable-background:new 0 0 512 512" xml:space="preserve" class="">
  <g>
    <path fill="#6a7f91" d="m44.095 26.401 11 19.053L63 40.89V15.487z" opacity="1" data-original="#6a7f91" class=""/>
    <path fill="#788d9e" d="m44.095 26.401 11 19.053L63 40.89V15.487z" opacity="1" data-original="#788d9e" class=""/>
    <path fill="#6a7f91" d="m45.096 28.133 9.999 17.321L63 40.89V17.796z" opacity="1" data-original="#6a7f91" class=""/>
    <path fill="#f5c0a6" d="m35.188 58.1 8.283-4.782a15 15 0 0 0 6.294-7.1l4.33-2.5-9-15.589-4.33 2.5-3.556-.541a8 8 0 0 0-5.2.98l-7.962 4.6" opacity="1" data-original="#f5c0a6" class=""/>
    <path fill="#fcd4c5" d="M32.467 54.679 36 58.892a2.5 2.5 0 0 1-.308 3.523 2.5 2.5 0 0 1-3.521-.307L28.812 58.1l1.032 1.2-9.315-5.98a15 15 0 0 1-6.294-7.1l-4.33-2.5 9-15.589 4.33 2.5 3.556-.541a8 8 0 0 1 5.2.98l7.962 4.6" opacity="1" data-original="#fcd4c5" class=""/>
    <path fill="#fcd4c5" d="m37.53 37.377 11.248 13.406a2.5 2.5 0 0 1-.308 3.522A2.5 2.5 0 0 1 44.948 54L33.7 40.591" opacity="1" data-original="#fcd4c5" class=""/>
    <path fill="#fcd4c5" d="m33.7 40.591 12.312 14.674a2.5 2.5 0 0 1-.308 3.522 2.5 2.5 0 0 1-3.522-.309L29.869 43.805M29.869 43.805l11.249 13.406a2.5 2.5 0 0 1-.308 3.522 2.5 2.5 0 0 1-3.522-.308L26.039 47.019" opacity="1" data-original="#fcd4c5" class=""/>
    <path fill="#f9c9b2" d="M38.978 49.216a.75.75 0 0 1 .093-1.057.75.75 0 0 1 1.056.092l5.885 7.014a2.5 2.5 0 0 1-.308 3.522 2.473 2.473 0 0 1-.657.384 2.49 2.49 0 0 0-.184-2.942z" opacity="1" data-original="#f9c9b2" class=""/>
    <g fill="#f5c0a6">
      <rect width="7.728" height="5" x="14.15" y="48.845" rx="2.5" transform="rotate(-49.98 18.027 51.35)" fill="#f5c0a6" opacity="1" data-original="#f5c0a6" class=""/>
      <rect width="9.383" height="5" x="16.62" y="52.693" rx="2.5" transform="rotate(-49.98 21.326 55.196)" fill="#f5c0a6" opacity="1" data-original="#f5c0a6" class=""/>
      <rect width="7.728" height="5" x="21.81" y="55.273" rx="2.5" transform="rotate(-49.98 25.689 57.777)" fill="#f5c0a6" opacity="1" data-original="#f5c0a6" class=""/>
      <path d="m28.004 58.906.468-.557a2.5 2.5 0 0 1 3.522-.307 2.5 2.5 0 0 1 .308 3.522l-.47.559a2.5 2.5 0 0 1-3.522.307 2.5 2.5 0 0 1-.306-3.524zM40.765 30.633l-3.556-.541a8 8 0 0 0-5.2.98l-8.36 4.828a2.5 2.5 0 0 0-.915 3.415 2.5 2.5 0 0 0 3.415.915l6.495-3.75a8 8 0 0 0 10.929 2.929" fill="#f5c0a6" opacity="1" data-original="#f5c0a6" class=""/>
    </g>
    <path fill="#f5fdff" d="m44.094 26.4 5.196-3 11 19.052-5.196 3z" opacity="1" data-original="#f5fdff"/>
    <path fill="#788d9e" d="m19.905 26.401-11 19.053L1 40.89V15.487z" opacity="1" data-original="#788d9e" class=""/>
    <path fill="#6a7f91" d="m1 40.89 7.905 4.564 9.999-17.321L1 17.796z" opacity="1" data-original="#6a7f91" class=""/>
    <path fill="#f5fdff" d="m3.707 42.454 11-19.052 5.196 3-11 19.052z" opacity="1" data-original="#f5fdff"/>
    <path fill="#f9c9b2" d="M36.3 51.465a.749.749 0 0 0-1.056-.092.75.75 0 0 0-.093 1.057l4.821 5.745a2.492 2.492 0 0 1 .185 2.942 2.467 2.467 0 0 0 .656-.384 2.5 2.5 0 0 0 .308-3.523zM31.318 55.644a.75.75 0 0 1 .092-1.057.751.751 0 0 1 1.057.092L36 58.893a2.5 2.5 0 0 1-.308 3.522 2.473 2.473 0 0 1-.657.384 2.49 2.49 0 0 0-.184-2.942z" opacity="1" data-original="#f9c9b2" class=""/>
    <path fill="#ebb69d" d="M19.656 50.943 17.9 53.032a2.491 2.491 0 0 1-2.865.693 2.459 2.459 0 0 0 .493.58A2.5 2.5 0 0 0 19.052 54l1.753-2.09A2.468 2.468 0 0 0 19.84 48a2.493 2.493 0 0 1-.184 2.943zM23.486 54.157l-2.817 3.357a2.493 2.493 0 0 1-2.866.693 2.467 2.467 0 0 0 4.015.271l2.817-3.357a2.469 2.469 0 0 0-.964-3.907 2.493 2.493 0 0 1-.185 2.943zM27.316 57.371l-1.753 2.089a2.492 2.492 0 0 1-2.866.693 2.467 2.467 0 0 0 4.015.272l1.753-2.09a2.469 2.469 0 0 0-.964-3.907 2.493 2.493 0 0 1-.185 2.943zM31.149 60.584l-.468.558a2.492 2.492 0 0 1-2.867.692 2.47 2.47 0 0 0 4.016.272l.468-.557a2.5 2.5 0 0 0-.308-3.522 2.447 2.447 0 0 0-.655-.384 2.492 2.492 0 0 1-.186 2.941z" opacity="1" data-original="#ebb69d" class=""/>
    <path fill="#e6f5fa" d="m3.707 42.454 10-17.32 5.196 3-10 17.32z" opacity="1" data-original="#e6f5fa" class=""/>
    <path fill="#f5fdff" d="m44.094 26.4 5.196-3 11 19.052-5.196 3z" opacity="1" data-original="#f5fdff"/>
    <path fill="#e6f5fa" d="m45.095 28.132 5.196-3 10 17.32-5.196 3z" opacity="1" data-original="#e6f5fa" class=""/>
    <circle cx="32" cy="13" r="12" fill="#606c76" opacity="1" data-original="#b6f085" class=""/>
    <path fill="#9ab1c3" d="M34 3a11.988 11.988 0 0 0-9.419 19.419A11.988 11.988 0 0 0 41.419 5.581 11.93 11.93 0 0 0 34 3z" opacity="1" data-original="#a0e576" class=""/>
    <path fill="#ffffff" d="m29.525 15.121-2.475-2.475a1.5 1.5 0 0 0-2.121 0 1.5 1.5 0 0 0 0 2.122l3.535 3.532a1.5 1.5 0 0 0 2.122 0l8.485-8.485a1.5 1.5 0 0 0 0-2.121 1.5 1.5 0 0 0-2.121 0z" opacity="1" data-original="#ffffff" class=""/>
    <path d="M32 25.75A12.75 12.75 0 1 0 19.25 13 12.765 12.765 0 0 0 32 25.75zm0-24A11.25 11.25 0 1 1 20.75 13 11.263 11.263 0 0 1 32 1.75z" fill="#000000" opacity="1" data-original="#000000" class=""/>
    <path d="M27.934 18.834a2.249 2.249 0 0 0 3.182 0l8.484-8.485a2.251 2.251 0 0 0 0-3.182 2.25 2.25 0 0 0-3.182 0l-6.9 6.9-1.938-1.951A2.25 2.25 0 0 0 24.4 15.3zm-2.475-5.657a.75.75 0 0 1 1.061 0L29 15.651a.75.75 0 0 0 1.061 0l7.419-7.424a.75.75 0 0 1 1.061 0 .75.75 0 0 1 0 1.061l-8.485 8.485a.75.75 0 0 1-1.061 0l-3.536-3.536a.749.749 0 0 1 0-1.06z" fill="#000000" opacity="1" data-original="#000000" class=""/>
    <path d="m62.625 14.841-18.9 10.915a.75.75 0 0 0-.275 1.024l.625 1.082-3.452 1.994-3.3-.5a8.786 8.786 0 0 0-5.323.88 8.775 8.775 0 0 0-5.322-.88l-3.3.5-3.453-1.993.625-1.082a.75.75 0 0 0-.274-1.024L1.375 14.841a.75.75 0 0 0-1.125.649v25.4a.751.751 0 0 0 .375.65l7.9 4.564a.75.75 0 0 0 1.025-.274l.625-1.083 3.467 2a15.739 15.739 0 0 0 1.632 2.8l-.631.752a3.237 3.237 0 0 0 2.271 5.322 3.24 3.24 0 0 0 .9 3.738 3.238 3.238 0 0 0 3.836.233 3.222 3.222 0 0 0 1.058 1.713 3.249 3.249 0 0 0 4.078.076A3.242 3.242 0 0 0 32 62.984a3.239 3.239 0 0 0 5.212-1.6 3.233 3.233 0 0 0 5.137-1.79 3.229 3.229 0 0 0 4.732-3.973 3.236 3.236 0 0 0 2.272-5.32l-.631-.752a15.678 15.678 0 0 0 1.632-2.8l3.467-2 .625 1.083a.75.75 0 0 0 1.025.274l7.9-4.564a.751.751 0 0 0 .375-.65V15.49a.75.75 0 0 0-1.121-.649zM1.75 40.461V16.789l11.934 6.89L3.433 41.433zm6.88 3.973-3.9-2.251 10.253-17.754 3.9 2.251zm7.382 9.3a1.749 1.749 0 0 1-.216-2.465l1.753-2.089a1.749 1.749 0 0 1 2.466-.216 1.75 1.75 0 0 1 .216 2.465l-1.754 2.09a1.75 1.75 0 0 1-2.465.215zM21.244 58a1.75 1.75 0 0 1-2.466.216 1.75 1.75 0 0 1-.215-2.466l2.816-3.357a1.75 1.75 0 0 1 2.682 2.25zm6.647-.143-1.753 2.089a1.75 1.75 0 0 1-2.466.216 1.75 1.75 0 0 1-.216-2.465l1.753-2.09a1.75 1.75 0 0 1 2.682 2.249zm3.83 3.214-.467.557a1.75 1.75 0 0 1-2.683-2.249l.469-.559a1.75 1.75 0 0 1 2.681 2.251zm16.267-7.337a1.752 1.752 0 0 1-2.465-.216l-5.043-6.009a.75.75 0 1 0-1.149.964l6.107 7.277A1.75 1.75 0 1 1 42.756 58l-6.107-7.277a.75.75 0 1 0-1.148.964l5.042 6.013a1.75 1.75 0 1 1-2.681 2.25l-4.821-5.75a.75.75 0 1 0-1.149.964l3.536 4.214a1.749 1.749 0 0 1-2.441 2.484 3.226 3.226 0 0 0-3.2-5.1 3.226 3.226 0 0 0-1.146-2.524 3.228 3.228 0 0 0-2.684-.69 3.229 3.229 0 0 0-1.146-2.524 3.23 3.23 0 0 0-2.684-.69 3.232 3.232 0 0 0-1.146-2.524 3.251 3.251 0 0 0-4.579.4l-.129.155a14.075 14.075 0 0 1-1.346-2.439.755.755 0 0 0-.315-.355l-3.681-2.125 8.251-14.29 3.68 2.125a.748.748 0 0 0 .488.092l3.555-.541a7.271 7.271 0 0 1 3.453.325l-7.083 4.093a3.25 3.25 0 1 0 3.25 5.63l5.875-3.391a8.756 8.756 0 0 0 7.373 3.729L48.2 51.269a1.752 1.752 0 0 1-.212 2.465zm1.4-8.158a.755.755 0 0 0-.315.355 14.03 14.03 0 0 1-1.346 2.438L41.547 41a8.708 8.708 0 0 0 2.4-.944.75.75 0 0 0-.75-1.3 7.258 7.258 0 0 1-9.9-2.654.75.75 0 0 0-1.024-.274l-6.5 3.75a1.75 1.75 0 1 1-1.75-3.032l8.355-4.824a7.283 7.283 0 0 1 4.718-.888l3.555.541a.744.744 0 0 0 .488-.092l3.68-2.125 8.25 14.29zm5.98-1.142L45.12 26.68l3.9-2.251 10.25 17.754zm6.88-3.973-1.683.972-10.249-17.754 11.934-6.89z" fill="#000000" opacity="1" data-original="#000000" class=""/>
  </g>
</svg>
