<?xml version="1.0" encoding="UTF-8"?>
<svg xmlns="http://www.w3.org/2000/svg" xmlns:xlink="http://www.w3.org/1999/xlink" version="1.1" width="512" height="512" x="0" y="0" viewBox="0 0 512 512" style="enable-background:new 0 0 512 512" xml:space="preserve" class="">
  <g>
    <path d="M433.102 243.615c0 115.71-105.105 206.06-220.815 206.06-47.14 0-104.808-23.389-152.197-73.555-21.71-35.09-34.24-76.47-34.24-120.77 0-29.1 5.41-56.93 15.27-82.56L179.46 38.41c23.86-8.39 49.53-12.95 76.26-12.95 12.71 0 25.18 1.03 37.33 3.02C394.788 72.3 433.102 167.125 433.102 243.615z" style="" fill="#7fa2cf" data-original="#bbf49b" class="" opacity="1"/>
    <path d="M485.58 255.35c0 28.04-5.02 54.91-14.21 79.75l-105.4 117.18-179.22 6.47-66.88-17.94a231.023 231.023 0 0 1-59.78-64.69c35.01 26.29 78.52 41.86 125.66 41.86 115.71 0 209.51-93.81 209.51-209.52 0-76.49-40.99-143.41-102.21-179.98C402.24 46.31 485.58 141.1 485.58 255.35z" style="" fill="#566578" data-original="#9be69d" class="" opacity="1"/>
    <path d="M301.86 382.89c24.481 30.738-72.171 64.627-115.111 64.627-14.42 0-37.749 0-43.109-33.777l9.86-11.23a47.586 47.586 0 0 1 24.1-12.97l47.99-9.8h60.87l15.4 3.15z" style="" fill="#eaf6ff" data-original="#eaf6ff"/>
    <path d="M325.25 206.159c0 48.21-48.089 62.771-92.469 74.841l-54.891-11.79-14.52-22.96c-13.61-48.94 14.03-102.59 65.73-116.57 17.06-4.73 36.82-4.73 53.87 0a93.647 93.647 0 0 1 17.86 6.83c35.966 42.773 24.42 58.549 24.42 69.649z" style="" fill="#73788c" data-original="#73788c" class=""/>
    <path d="m348.71 246.25-13.98 22.96H228.75c44.38-12.07 77.02-52.65 77.02-100.86 0-11.1-1.73-21.8-4.94-31.84 39.99 20.2 59.82 66.78 47.88 109.74z" style="" fill="#5e6577" data-original="#5e6577" class=""/>
    <path d="m369.31 413.25-3.34 39.03-8.21 9.12c-30.75 15.26-65.39 23.84-102.04 23.84-50.83 0-97.79-16.5-135.85-44.43l23.77-27.07a210.15 210.15 0 0 0 42.11 4.24c42.94 0 82.87-12.92 116.11-35.09l32.61 6.66a47.495 47.495 0 0 1 24.1 12.96l10.74 10.74z" style="" fill="#d8ecfe" data-original="#d8ecfe" class=""/>
    <path d="M225.594 317.654v62.082c18.431 12.278 42.434 12.278 60.866 0v-62.082h-60.866zM322.962 245.545h20.028c7.593 0 13.748 6.156 13.748 13.749v8.494c0 14.957-12.124 27.082-27.079 27.082H182.417c-14.955 0-27.079-12.125-27.079-27.082v-8.494c0-7.593 6.155-13.749 13.748-13.749h153.876z" style="" fill="#ffb09e" data-original="#ffb09e" class=""/>
    <path d="m296.611 328.21-15.505 12.078c-14.74 11.483-35.397 11.483-50.137 0l-15.505-12.078a59.905 59.905 0 0 1-23.09-47.258v-34.699c0-11.774 9.929-21.109 21.68-20.381l21.323 1.32a65.73 65.73 0 0 0 38.325-9.511l19.476-11.897c11.618-7.097 26.522 1.266 26.522 14.88v60.287a59.902 59.902 0 0 1-23.089 47.259z" style="" fill="#ffcebf" data-original="#ffcebf" class=""/>
    <path d="M325.25 19.01c0 1.74-.14 3.46-.43 5.11 0 .09-.02.18-.04.26-2.53 14.51-15.19 25.54-30.42 25.54h-78.82l-18.73-4.45-11.52 4.45c2.86 0 5.73.55 8.41 1.65a22.07 22.07 0 0 1 9.33 7.25c6.5 8.67-.23 21.87-8.06 29.79l-84.52 82.34c-13.6 13.73-32.1 16.33-51.41 16.33L7.5 184.26V99.381a2.988 2.988 0 0 1 2.539-2.958A61.342 61.342 0 0 0 39.5 83.48l104.64-68.41c6.07-4.9 13.62-7.57 21.42-7.57h148.19c3.17 0 6.05 1.29 8.13 3.38 2.08 2.08 3.37 4.95 3.37 8.13z" style="" fill="#facbbc" data-original="#ce7165" class="" opacity="1"/>
    <path d="m201.03 87.74-88.24 89.02c-13.6 13.73-33.67 23.19-52.98 23.19l-12.55-.47c-3.66-.14-7.28-.73-10.78-1.74a45.288 45.288 0 0 1-10.03-4.3 44.636 44.636 0 0 0-16.353-5.637 2.996 2.996 0 0 1-2.597-2.965V169.6c5.6 1.09 11.05 2.89 16.22 5.37l.95.45a64.446 64.446 0 0 0 27.69 6.31l9.43.01c19.32 0 32.03-10.44 45.63-24.17l95.61-98.75c6.51 8.67 5.84 21.01-2 28.92z" style="" fill="#c46255" data-original="#c46255" class=""/>
    <path d="M186.749 492.3c0-1.74.14-3.46.43-5.11 0-.09.02-.18.04-.26 2.53-14.51 15.19-25.54 30.42-25.54h78.82l18.73 4.45 11.52-4.45c-2.86 0-5.73-.55-8.41-1.65a22.07 22.07 0 0 1-9.33-7.25c-6.5-8.67.23-21.87 8.06-29.79l84.52-82.34c13.6-13.73 32.1-16.33 51.41-16.33l51.54 3.02v84.879a2.988 2.988 0 0 1-2.539 2.958 61.342 61.342 0 0 0-29.461 12.943l-104.64 68.41a34.082 34.082 0 0 1-21.42 7.57h-148.19c-3.17 0-6.05-1.29-8.13-3.38a11.456 11.456 0 0 1-3.37-8.13z" style="" fill="#facbbc" data-original="#ce7165" class="" opacity="1"/>
    <path d="m310.969 423.57 88.24-89.02c13.6-13.73 33.67-23.19 52.98-23.19l12.55.47c3.66.14 7.28.73 10.78 1.74 3.49 1.02 6.86 2.46 10.03 4.3a44.636 44.636 0 0 0 16.353 5.637 2.996 2.996 0 0 1 2.597 2.965v15.238a67.165 67.165 0 0 1-16.22-5.37l-.95-.45a64.446 64.446 0 0 0-27.69-6.31l-9.43-.01c-19.32 0-32.03 10.44-45.63 24.17l-95.61 98.75c-6.51-8.67-5.84-21.01 2-28.92z" style="" fill="#c46255" data-original="#c46255" class=""/>
    <path d="M484.706 235.163c.579 6.652.874 13.386.874 20.188 0 20.828-2.769 41.008-7.96 60.194M322.157 35.211c77.376 23.326 137.549 86.34 156.861 165.379M191.076 476.025C95.595 448.096 25.853 359.869 25.853 255.35c0-20.273 2.624-39.934 7.551-58.66M273.528 127.587a94.446 94.446 0 0 1 9.447 2.095c51.705 13.982 79.339 67.63 65.735 116.572M272.186 127.369c.448.07.896.142 1.342.218M163.366 246.254c-13.605-48.942 14.03-102.59 65.735-116.572a94.588 94.588 0 0 1 9.426-2.092M225.594 338.437v41.299h0c18.431 12.278 42.434 12.278 60.866 0h0v-41.299" style="stroke-width:15;stroke-linecap:round;stroke-linejoin:round;stroke-miterlimit:10;" fill="none" stroke="#000000" stroke-width="15" stroke-linecap="round" stroke-linejoin="round" stroke-miterlimit="10" data-original="#000000" class=""/>
    <path d="m225.594 379.736-47.99 9.808a47.547 47.547 0 0 0-24.103 12.966l-29.684 34.925M286.46 379.736l48.008 9.809a47.5 47.5 0 0 1 8.132 2.435M192.575 294.87h-10.159c-14.955 0-27.079-12.125-27.079-27.082v-8.494c0-7.593 6.155-13.749 13.748-13.749h20.877M319.5 294.87h10.159c14.955 0 27.079-12.125 27.079-27.082v-8.494c0-7.593-6.155-13.749-13.748-13.749h-22.028" style="stroke-width:15;stroke-linecap:round;stroke-linejoin:round;stroke-miterlimit:10;" fill="none" stroke="#000000" stroke-width="15" stroke-linecap="round" stroke-linejoin="round" stroke-miterlimit="10" data-original="#000000" class=""/>
    <path d="m296.611 328.21-15.505 12.078c-14.74 11.483-35.397 11.483-50.137 0l-15.505-12.078a59.905 59.905 0 0 1-23.09-47.258v-34.699c0-11.774 9.929-21.109 21.68-20.381l21.323 1.32a65.73 65.73 0 0 0 38.325-9.511l19.476-11.897c11.618-7.097 26.522 1.266 26.522 14.88v60.287a59.902 59.902 0 0 1-23.089 47.259z" style="stroke-width:15;stroke-linecap:round;stroke-linejoin:round;stroke-miterlimit:10;" fill="none" stroke="#000000" stroke-width="15" stroke-linecap="round" stroke-linejoin="round" stroke-miterlimit="10" data-original="#000000" class=""/>
    <path d="M240.282 299.527a31.773 31.773 0 0 0 31.489 0M240.282 50.304H183.96M7.5 99.002a75.984 75.984 0 0 0 26.898-11.086L148.569 12.53a30.391 30.391 0 0 1 16.746-5.03h148.748c6.18 0 11.19 5.01 11.19 11.191v0c0 17.459-14.152 31.613-31.609 31.613h-18.361" style="stroke-width:15;stroke-linecap:round;stroke-linejoin:round;stroke-miterlimit:10;" fill="none" stroke="#000000" stroke-width="15" stroke-linecap="round" stroke-linejoin="round" stroke-miterlimit="10" data-original="#000000" class=""/>
    <path d="M7.5 187.318c8.104.75 12.258 1.875 19.713 5.451h0a73.131 73.131 0 0 0 31.632 7.195h0a73.132 73.132 0 0 0 51.935-21.644l89.072-89.839c8.645-8.719 8.66-22.773.035-31.512h0c-8.472-8.584-22.219-8.918-31.098-.757l-68.634 63.08M419.546 462.418l-56.115 37.052a30.391 30.391 0 0 1-16.746 5.03H197.937c-6.18 0-11.19-5.01-11.19-11.191v0c0-17.459 14.152-31.613 31.61-31.613H328.04M504.5 412.998a75.984 75.984 0 0 0-26.898 11.086l-28.847 19.047" style="stroke-width:15;stroke-linecap:round;stroke-linejoin:round;stroke-miterlimit:10;" fill="none" stroke="#000000" stroke-width="15" stroke-linecap="round" stroke-linejoin="round" stroke-miterlimit="10" data-original="#000000" class=""/>
    <path d="M504.5 324.682c-8.104-.75-12.258-1.875-19.713-5.451h0a73.131 73.131 0 0 0-31.632-7.195h0a73.132 73.132 0 0 0-51.935 21.644l-89.072 89.839c-8.645 8.719-8.66 22.773-.035 31.512h0c8.472 8.584 22.219 8.918 31.098.757l68.634-63.08M369.677 168.349h14.299M420.601 168.349H434.9M402.288 135.734v14.301M402.288 186.664v14.3M85.086 340.437h14.299M136.01 340.437h14.299M117.698 307.822v14.301M117.698 358.752v14.3" style="stroke-width:15;stroke-linecap:round;stroke-linejoin:round;stroke-miterlimit:10;" fill="none" stroke="#000000" stroke-width="15" stroke-linecap="round" stroke-linejoin="round" stroke-miterlimit="10" data-original="#000000" class=""/>
  </g>
</svg>
