<svg id="Capa_1" enable-background="new 0 0 512 512" height="512" viewBox="0 0 512 512" width="512" xmlns="http://www.w3.org/2000/svg"><g><g><g fill="#ffcebf"><path d="m135.47 414.869-127.994-166.198c-12.06-15.66-9.228-38.242 6.327-50.438 15.554-12.196 37.941-9.388 50.001 6.272l89.007 115.574z"/><path d="m152.811 320.079-127.994-166.197c-12.06-15.66-9.228-38.242 6.327-50.438 15.554-12.196 37.941-9.388 50.001 6.272l127.994 166.198z"/><path d="m265.466 231.747-102.002-132.449c-12.06-15.66-9.228-38.242 6.327-50.438 15.554-12.196 37.941-9.388 50.001 6.272l133.74 173.659z"/><path d="m183.148 242.164-127.994-166.197c-12.06-15.66-9.228-38.242 6.327-50.438 15.554-12.196 37.941-9.388 50.001 6.272l127.994 166.198z"/><path d="m109.352 380.955 56.555 73.435c50.135 65.099 143.195 76.772 207.855 26.072 33.052-25.916 53.732-64.69 56.935-106.751l15.51-203.662c2.388-31.353-21.249-58.502-52.379-60.159-7.554-.402-14.281 4.816-15.837 12.286l-19.58 93.985c-2.007 9.636-7.344 18.246-15.056 24.293-38.782 30.409-61.424 77.207-61.299 126.695l.009 3.453 71.468-141.814-114.056-51.363-93.288 84.215z"/></g><path d="m63.804 204.505c-12.06-15.66-34.446-18.468-50.001-6.272-9.317 7.306-14.064 18.337-13.785 29.376 15.469-10.943 36.869-7.842 48.563 7.342l68.238 88.605c9.606 12.474 28.951 10.605 35.992-3.477z" fill="#ffb09e"/><path d="m65.922 140.162 100.411 130.382c10.298 13.372 29.523 15.784 42.805 5.369l-127.993-166.197c-12.06-15.66-34.446-18.468-50.001-6.272-9.317 7.306-14.064 18.337-13.785 29.376 15.469-10.943 36.87-7.842 48.563 7.342z" fill="#ffb09e"/><path d="m96.259 62.246 124.737 160.972c10.563 13.632 29.613 17.285 44.47 8.529l-153.984-199.947c-12.06-15.66-34.446-18.468-50.001-6.272-9.317 7.306-14.064 18.337-13.785 29.376 15.469-10.942 36.869-7.841 48.563 7.342z" fill="#ffb09e"/><path d="m189.345 70.355 109.889 142.689c8.28 10.752 21.232 16.857 34.796 16.402l19.501-.655-133.74-173.659c-12.06-15.66-34.446-18.468-50.001-6.272-2.857 2.24-5.28 4.832-7.265 7.666 10.167.37 20.098 5.1 26.82 13.829z" fill="#ffb09e"/><g><path d="m393.828 109.891c-4.428-.236-8.563 1.47-11.548 4.418 21.21 9.145 35.354 31.147 33.481 55.741l-15.51 203.662c-3.203 42.061-23.883 80.835-56.935 106.751-22.783 17.864-49.092 27.974-75.807 30.742 36.666 3.809 74.815-6.092 106.252-30.742 33.052-25.916 53.732-64.69 56.935-106.751l15.51-203.662c2.388-31.353-21.249-58.501-52.378-60.159z" fill="#ffb09e"/></g></g><g><g><path d="m114.555 504.39c-.316 0-.635-.02-.957-.06-32.077-4.024-60.679-20.44-80.537-46.225-19.842-25.765-28.537-57.751-24.484-90.067.523-4.171 4.325-7.126 8.5-6.605 4.171.523 7.128 4.329 6.605 8.5-3.551 28.306 4.063 56.32 21.44 78.883 17.361 22.544 42.353 36.894 70.371 40.408 4.171.523 7.128 4.329 6.605 8.5-.483 3.849-3.761 6.666-7.543 6.666z" fill="#e5e1e5"/></g><g><path d="m119.07 468.401c-.316 0-.635-.02-.957-.06-46.62-5.848-79.754-48.836-73.86-95.829.524-4.17 4.327-7.125 8.5-6.605 4.171.523 7.128 4.329 6.605 8.5-4.85 38.663 22.357 74.026 60.65 78.829 4.171.523 7.128 4.329 6.605 8.5-.483 3.849-3.762 6.665-7.543 6.665z" fill="#e5e1e5"/></g></g><g><g><path d="m503.491 143.017c-.316 0-.635-.02-.957-.06-4.17-.523-7.128-4.329-6.605-8.5 7.339-58.507-33.847-112.021-91.811-119.292-4.17-.523-7.128-4.329-6.605-8.5s4.32-7.129 8.499-6.605c66.292 8.316 113.404 69.456 105.021 136.292-.482 3.849-3.761 6.665-7.542 6.665z" fill="#e5e1e5"/></g><g><path d="m467.815 138.542c-.316 0-.635-.02-.957-.06-4.17-.523-7.128-4.329-6.605-8.5 4.849-38.663-22.358-74.026-60.65-78.829-4.17-.523-7.128-4.329-6.605-8.5s4.32-7.129 8.499-6.605c46.62 5.848 79.754 48.837 73.859 95.829-.481 3.848-3.76 6.665-7.541 6.665z" fill="#e5e1e5"/></g></g></g></svg>