<svg id="Layer_1" enable-background="new 0 0 512 512" height="512" viewBox="0 0 512 512" width="512" xmlns="http://www.w3.org/2000/svg"><g clip-rule="evenodd" fill-rule="evenodd"><g><ellipse cx="162.136" cy="438.547" fill="#8c9ba6" rx="38.903" ry="38.903" transform="matrix(.16 -.987 .987 .16 -296.719 528.342)"/><path d="m162.136 399.644c21.486 0 38.903 17.417 38.903 38.903s-17.417 38.903-38.903 38.903c-1.637 0-3.25-.102-4.834-.299 19.204-2.38 34.069-18.756 34.069-38.604s-14.865-36.224-34.069-38.604c1.584-.197 3.197-.299 4.834-.299z" fill="#7c8b96"/><ellipse cx="430.876" cy="438.634" fill="#8c9ba6" rx="38.903" ry="38.903" transform="matrix(.16 -.987 .987 .16 -71.113 793.685)"/><path d="m430.876 399.731c21.485 0 38.903 17.418 38.903 38.903 0 21.486-17.418 38.903-38.903 38.903-1.637 0-3.251-.102-4.835-.299 19.204-2.38 34.069-18.756 34.069-38.604 0-19.849-14.865-36.224-34.069-38.604 1.584-.196 3.197-.299 4.835-.299z" fill="#7c8b96"/><path d="m491.604 103.493c6.408 0 11.602 5.195 11.602 11.602 0 1.289-.211 2.528-.598 3.686l-40.853 167.612c-2.235 9.171-7.337 16.887-14.24 22.31-6.938 5.45-15.64 8.595-25.034 8.595-94.009 0-188.019 0-282.028 0-16.971-71.268-33.942-142.537-50.913-213.805z" fill="#e5ecf1"/><path d="m491.604 103.493c6.408 0 11.602 5.195 11.602 11.602 0 1.289-.211 2.528-.598 3.686l-40.853 167.612c-2.235 9.171-7.337 16.887-14.24 22.31-6.938 5.45-15.64 8.595-25.034 8.595-94.009 0-188.019 0-282.028 0l-6.907-29.005h250.261c9.395 0 18.097-3.145 25.034-8.595 6.903-5.423 12.005-13.139 14.24-22.31l37.509-153.895z" fill="#d6e4ea"/></g><path d="m165.469 256.391h-145.3c-6.63 0-12.002-5.372-12.002-11.998 0-6.63 5.372-12.002 12.002-12.002h145.3c6.63 0 11.998 5.372 11.998 12.002-.001 6.626-5.368 11.998-11.998 11.998zm-80.115-65.714c-6.626 0-11.998-5.372-11.998-12.002 0-6.626 5.372-11.998 11.998-11.998h146.573c6.63 0 11.997 5.372 11.997 11.998 0 6.63-5.367 12.002-11.997 12.002zm346.475 276.511c-15.574 0-28.241-12.667-28.241-28.237 0-15.574 12.667-28.241 28.241-28.241 15.57 0 28.246 12.667 28.246 28.241 0 15.57-12.677 28.237-28.246 28.237zm-270.611 0c-15.57 0-28.241-12.667-28.241-28.237 0-15.574 12.671-28.241 28.241-28.241s28.241 12.667 28.241 28.241c0 15.57-12.671 28.237-28.241 28.237zm-24.631-145.079h291.963c19.368 0 36.096-13.138 40.668-31.94l42.505-174.366c.848-3.577.047-7.361-2.215-10.254-2.309-2.893-5.796-4.585-9.472-4.585h-391.186l-16.894-70.935c-1.291-5.405-6.121-9.217-11.668-9.217h-50.243c-6.63 0-11.998 5.372-11.998 11.998 0 6.63 5.367 12.002 11.998 12.002h40.762l13.369 56.152h-72.231c-6.63 0-11.998 5.367-11.998 11.998 0 6.626 5.367 12.002 11.998 12.002h472.822l-38.877 159.522c-1.984 8.143-8.953 13.623-17.341 13.623h-291.962c-25.56 0-46.36 20.791-46.36 46.351s20.8 46.35 46.36 46.35h4.34c-18.76 7.94-31.95 26.531-31.95 48.141 0 28.807 23.439 52.236 52.241 52.236 28.797 0 52.236-23.43 52.236-52.236 0-21.611-13.185-40.201-31.95-48.141h230.033c-18.76 7.94-31.95 26.531-31.95 48.141 0 28.807 23.43 52.236 52.241 52.236s52.231-23.43 52.231-52.236c0-21.611-13.194-40.201-31.95-48.141h17.153c6.644 0 12.016-5.372 12.016-12.002 0-6.616-5.372-11.998-12.016-11.998h-332.675c-12.328 0-22.36-10.019-22.36-22.351 0-12.331 10.032-22.35 22.36-22.35z"/></g></svg>