<svg id="Capa_1" enable-background="new 0 0 512 512" height="512" viewBox="0 0 512 512" width="512" xmlns="http://www.w3.org/2000/svg"><path d="m44.005 488.006v-404.454c0-9.109 7.385-16.494 16.494-16.494h333.467c9.109 0 16.494 7.385 16.494 16.494v404.454c0 9.109-7.385 16.494-16.494 16.494h-333.467c-9.11 0-16.494-7.385-16.494-16.494z" fill="#0e80ac"/><path d="m393.966 67.058h-19.184v420.948c0 9.109-7.384 16.494-16.494 16.494h35.678c9.109 0 16.494-7.384 16.494-16.494v-404.454c0-9.109-7.385-16.494-16.494-16.494z" fill="#057195"/><path d="m79.711 67.058v386.128c0 6.008 4.871 10.879 10.879 10.879h273.285c6.009 0 10.879-4.871 10.879-10.879v-386.128z" fill="#f7f0f0"/><path d="m259.905 31.154c0-13.064-10.59-23.654-23.654-23.654h-18.037c-13.064 0-23.654 10.59-23.654 23.654 0 6.627-5.373 12-12 12h-14.433c-13.202 0-23.904 10.702-23.904 23.904v12.558c0 6.267 5.08 11.347 11.347 11.347h143.326c6.267 0 11.347-5.08 11.347-11.347v-12.558c0-13.202-10.702-23.904-23.904-23.904h-14.433c-6.629 0-12.001-5.373-12.001-12z" fill="#fd7e42"/><path d="m286.338 43.154h-14.433c-6.627 0-12-5.373-12-12 0-13.064-10.59-23.654-23.654-23.654h-12.207v36.153c0 6.627 5.373 12 12 12h14.433c13.202 0 23.904 10.702 23.904 23.904v11.405h24.515c6.266 0 11.346-5.08 11.346-11.346v-12.558c0-13.202-10.702-23.904-23.904-23.904z" fill="#fa6931"/><path d="m438.608 215.55-29.124-23.342-10.032 5.423-170.156 212.302-27.049 54.315c-2.197 4.412-1.021 9.759 2.825 12.842s9.321 3.066 13.149-.039l47.122-38.227 170.156-212.302z" fill="#fa6931"/><path d="m229.531 409.641-27.199 54.616c-2.209 4.437-1.027 9.813 2.841 12.913 3.867 3.1 9.373 3.083 13.222-.039l47.383-38.439z" fill="#557981"/><path d="m459.355 159.824c-9.954-7.978-24.491-6.376-32.469 3.578l-27.434 34.229 36.047 28.891 27.434-34.229c7.978-9.954 6.376-24.491-3.578-32.469z" fill="#ffc3ab"/><path d="m181.992 138.757c-3.394-2.375-8.071-1.547-10.444 1.849l-23.834 34.089-15.449-13.731c-3.096-2.753-7.837-2.473-10.588.623-2.752 3.096-2.473 7.836.623 10.588l16.441 14.614c6.205 5.516 15.79 4.334 20.505-2.409l24.596-35.178c2.373-3.395 1.545-8.072-1.85-10.445z"/><path d="m181.992 248.316c-3.394-2.374-8.071-1.547-10.444 1.849l-23.834 34.09-15.448-13.732c-3.096-2.754-7.837-2.473-10.588.623-2.752 3.096-2.473 7.836.623 10.588l16.442 14.616c6.208 5.516 15.79 4.329 20.503-2.41l24.596-35.179c2.373-3.396 1.545-8.072-1.85-10.445z"/><path d="m181.992 356.405c-3.394-2.374-8.071-1.547-10.444 1.849l-23.834 34.089-15.449-13.731c-3.096-2.753-7.837-2.473-10.588.623-2.752 3.096-2.473 7.836.623 10.588l16.441 14.614c6.205 5.516 15.79 4.333 20.505-2.409l24.596-35.178c2.373-3.395 1.545-8.072-1.85-10.445z"/><path d="m327.183 141.344h-105.992c-4.142 0-7.5 3.357-7.5 7.5s3.358 7.5 7.5 7.5h105.991c4.143 0 7.5-3.357 7.5-7.5s-3.357-7.5-7.499-7.5z"/><path d="m327.183 174.675h-105.992c-4.142 0-7.5 3.357-7.5 7.5s3.358 7.5 7.5 7.5h105.991c4.143 0 7.5-3.357 7.5-7.5s-3.357-7.5-7.499-7.5z"/><path d="m334.683 256c0-4.143-3.357-7.5-7.5-7.5h-105.992c-4.142 0-7.5 3.357-7.5 7.5s3.358 7.5 7.5 7.5h105.991c4.143 0 7.501-3.357 7.501-7.5z"/><path d="m221.191 281.831c-4.142 0-7.5 3.357-7.5 7.5s3.358 7.5 7.5 7.5h52.995c4.143 0 7.5-3.357 7.5-7.5s-3.357-7.5-7.5-7.5z"/><path d="m464.046 153.972c-13.2-10.578-32.438-8.455-43.013 4.74-7.575 9.451-183.803 229.33-197.589 246.53-.951 1.185.491-1.235-25.749 51.323h-107.105c-1.864 0-3.38-1.516-3.38-3.379v-378.627h49.513v5.058c0 10.392 8.455 18.846 18.846 18.846h143.326c10.393 0 18.847-8.454 18.847-18.846v-5.058h49.513v114.598c0 4.143 3.357 7.5 7.5 7.5s7.5-3.357 7.5-7.5v-114.598h11.711c4.959 0 8.994 4.035 8.994 8.994v60.947c0 4.143 3.357 7.5 7.5 7.5s7.5-3.357 7.5-7.5v-60.947c0-13.23-10.764-23.994-23.994-23.994h-77.136c-3.372-13.706-15.761-23.904-30.492-23.904h-14.433c-2.481 0-4.5-2.019-4.5-4.5 0-17.179-13.975-31.155-31.154-31.155h-18.037c-17.178 0-31.154 13.976-31.154 31.154 0 2.481-2.019 4.5-4.5 4.5h-14.433c-14.732 0-27.12 10.198-30.492 23.904h-77.137c-13.23 0-23.994 10.764-23.994 23.994v404.453c0 13.23 10.764 23.994 23.994 23.994h333.467c13.23 0 23.994-10.764 23.994-23.994v-191.088c0-4.143-3.357-7.5-7.5-7.5s-7.5 3.357-7.5 7.5v191.089c0 4.959-4.035 8.994-8.994 8.994h-333.467c-4.959 0-8.994-4.035-8.994-8.994v-404.453c0-4.959 4.035-8.994 8.994-8.994h11.712v378.628c0 10.134 8.245 18.379 18.38 18.379h103.293c.658 4.368 2.889 8.483 6.5 11.377 6.543 5.244 16.032 5.232 22.564-.067l13.941-11.31h126.987c10.135 0 18.38-8.245 18.38-18.379v-111.812c0-4.143-3.357-7.5-7.5-7.5s-7.5 3.357-7.5 7.5v111.812c0 1.863-1.517 3.379-3.38 3.379h-108.489c15.481-12.638 14.923-11.946 15.81-13.051 13.792-17.208 190.021-237.088 197.59-246.531 10.551-13.167 8.425-32.462-4.74-43.012zm-312.323-86.913c0-9.045 7.359-16.404 16.404-16.404h14.433c10.752 0 19.5-8.748 19.5-19.5 0-8.907 7.247-16.154 16.154-16.154h18.037c8.908 0 16.154 7.247 16.154 16.154 0 10.752 8.748 19.5 19.5 19.5h14.433c9.045 0 16.404 7.359 16.404 16.404v12.558c0 2.12-1.726 3.846-3.847 3.846h-143.326c-2.121 0-3.846-1.726-3.846-3.846zm61.774 404.168c-1.08.876-2.649.878-3.733.012-1.084-.87-1.422-2.404-.803-3.647l23.073-46.332 21.658 17.359zm50.919-43.238-24.342-19.51 160.54-200.305 24.342 19.51zm192.665-240.386-22.744 28.377-24.342-19.511 22.743-28.376c5.399-6.736 15.213-7.797 21.927-2.416 6.711 5.378 7.795 15.214 2.416 21.926z"/></svg>